<?xml version="1.0" encoding="UTF-8" standalone="no"?><svg height="78" preserveAspectRatio="xMinYMin meet" shape-rendering="crispEdges" width="564" xmlns="http://www.w3.org/2000/svg"><g stroke-width="6"><path d="m0 0h564v78h-564z"/><path d="m510 12h42v18h-24v6h18v6h-18v6h24v18h-48v-48h6zm-54 0h18v36h24v18h-48v-48h6zm-60 0v6h-6v48h18v-18h18v18h18v-54zm18 24h12v6h-12zm-84-24h54v24h-18v30h-24v-30h-18v-18h6zm-120 0h42v18h-24v6h18v6h-18v6h24v18h-48v-48h6zm48 0h54v6h6v30h-18v6h18v12h-24v-6h-12v-6h-6v12h-18zm-108 0v6h-6v48h48v-6h6v-42h-6v-6zm12 18h12v12h-6v12h-6zm-144-18h18v36h12v-36h24v54h-60v-48h6zm60 0h24v12h6v12h6v-24h24v54h-24v-6h-6v-6h-6v-6h-6v-12h-6v30h-12z" fill="#fff"/><path d="m282 24h6v6h6v-6h6v12h-6v6h-6v-6h-6z" fill="#ed1c24"/></g><path d="m546 36h6v6h-6zm-504 6h6v6h-6zm126 0h6v6h-6zm132 6h6v6h-6zm120 0h6v6h-6zm-144 6h6v6h-6zm-168 6h6v6h-6zm-18-24h6v6h-6zm156 0h6v6h-6zm162 0h6v6h-6zm-306-18h6v6h-6zm60 6h6v6h-6zm342-12h6v6h-6zm-54 0h6v6h-6zm-60 0h6v6h-6zm-78 0h6v6h-6zm12 0h6v6h-6zm-120 0h6v6h-6zm-60 0h6v6h-6zm-132 0h6v6h-6z" fill="#848484"/></svg>